<svg width="1119" height="842" viewBox="0 0 1119 842" fill="none" xmlns="http://www.w3.org/2000/svg">
<g filter="url(#filter0_d_332_881)">
<path d="M377.379 240.894C232.155 363.442 117.498 549.535 64.7555 701.492C350.823 189.517 692.747 89.1295 835.065 167.42C937.733 227.111 915.294 338.286 857.732 505.387C926.509 404.514 942.493 340.578 943.924 226.428C1048.07 450.966 758.431 737.751 501.219 795.371C676.838 756.029 776.526 715.85 965.511 478.873C1147.07 212.368 1033.84 75.8522 938.105 41.1695C796.683 -10.0665 588.911 56.7209 377.379 240.894Z" fill="url(#paint0_radial_332_881)"/>
<path d="M548.742 322.097C650.213 218.198 779.397 175.643 821.764 217.019C864.13 258.396 816.216 376.164 714.745 480.062C650.058 546.297 545.982 610.301 516.568 598.125C509.158 582.315 714.745 381.233 682.66 349.896C648.646 316.678 431.089 546.963 429.582 513.908C431.09 465.458 484.221 388.161 548.742 322.097ZM803.903 232.274C788.054 216.795 749.63 222.574 723.587 249.24C697.544 275.907 689.28 310.073 705.129 325.552C720.978 341.031 759.402 335.252 785.445 308.586C811.489 281.919 819.753 247.753 803.903 232.274Z" fill="url(#paint1_radial_332_881)"/>
<path d="M399.747 625.223C507.791 706.48 734.063 594.675 821.152 415.855C779.868 579.813 500.873 828.141 331.639 724.485C315.595 706.352 281.79 670.239 309.457 525.879C278.891 576.543 273.392 605.37 264.133 656.801C250.995 567.677 271.266 490.893 363.448 373.474C428.318 290.846 585.727 194.834 677.211 187.117C521.79 225.741 280.5 529.158 399.747 625.223Z" fill="url(#paint2_radial_332_881)"/>
</g>
<defs>
<filter id="filter0_d_332_881" x="-12.7658" y="-6.87387" width="1148.17" height="871.279" filterUnits="userSpaceOnUse" color-interpolation-filters="sRGB">
<feFlood flood-opacity="0" result="BackgroundImageFix"/>
<feColorMatrix in="SourceAlpha" type="matrix" values="0 0 0 0 0 0 0 0 0 0 0 0 0 0 0 0 0 0 127 0" result="hardAlpha"/>
<feOffset dx="1.96396" dy="7.85586"/>
<feGaussianBlur stdDeviation="7.36487"/>
<feComposite in2="hardAlpha" operator="out"/>
<feColorMatrix type="matrix" values="0 0 0 0 0 0 0 0 0 0 0 0 0 0 0 0 0 0 1 0"/>
<feBlend mode="normal" in2="BackgroundImageFix" result="effect1_dropShadow_332_881"/>
<feBlend mode="normal" in="SourceGraphic" in2="effect1_dropShadow_332_881" result="shape"/>
</filter>
<radialGradient id="paint0_radial_332_881" cx="0" cy="0" r="1" gradientUnits="userSpaceOnUse" gradientTransform="translate(559.354 420.909) rotate(83.7039) scale(365.828 522.386)">
<stop offset="0.22" stop-color="#FFEF5F"/>
<stop offset="1" stop-color="#B13BFF"/>
</radialGradient>
<radialGradient id="paint1_radial_332_881" cx="0" cy="0" r="1" gradientUnits="userSpaceOnUse" gradientTransform="translate(633.384 400.495) rotate(90) scale(199.13 203.802)">
<stop offset="0.22" stop-color="#FFEF5F"/>
<stop offset="1" stop-color="#B13BFF"/>
</radialGradient>
<radialGradient id="paint2_radial_332_881" cx="0" cy="0" r="1" gradientUnits="userSpaceOnUse" gradientTransform="translate(530.862 473.033) rotate(79.4562) scale(255.166 295.852)">
<stop offset="0.22" stop-color="#FFEF5F"/>
<stop offset="1" stop-color="#B13BFF"/>
</radialGradient>
</defs>
</svg>
