<svg width="1229" height="1229" viewBox="0 0 1229 1229" fill="none" xmlns="http://www.w3.org/2000/svg">
<g filter="url(#filter0_d_546_2)">
<path d="M1045.31 758.644C1015.45 689.345 825.814 656.605 757.508 649.981C749.054 649.158 726.247 646.367 719.613 647.66C716.428 648.277 714.065 649.423 712.392 652.331C709.544 697.423 773.33 693.825 805.751 701.463C890.568 721.453 897.525 753.327 809.552 778.032C763.79 790.884 713.536 794.953 666.16 797.215C661.17 792.882 682.774 781.219 685.841 780.103C711.79 770.732 748.276 771.878 767.87 748.009C768.912 744.235 768.34 741.929 766.021 738.844C763.687 735.73 736.036 719.558 729.123 714.021C722.489 708.719 716.428 701.933 710.366 695.999C677.828 664.14 656.855 558.87 640.108 485.87C635.192 496.534 600.158 495.887 595.829 486.355C584.66 546.385 576.426 624.306 564.141 644.047C471.604 649.878 375.046 658.074 287.558 690.3C233.297 710.276 134.611 762.536 208.053 826.958C258.336 871.052 352.282 890.176 416.963 899.385C417.623 889.691 417.242 882.347 413.147 873.49C393.054 829.999 281.379 829.47 243.703 786.522C217.784 756.969 260.361 723.392 288.761 721.233C288.981 728.063 281.276 730.486 278.296 735.671C260.332 766.898 325.071 792.5 346.279 800.255C488.938 852.413 745.752 852.692 888.131 799.653C908.371 792.118 960.884 770.659 958.11 744L943.874 721.233C975.546 724.743 1017.86 758.556 985.497 790.208C939.06 835.624 777.542 853.602 712.421 858.964C668.625 862.577 588.549 849.519 585.79 913.295C589.004 914.881 592.541 915.66 596.107 915.998C628.074 919.038 674.804 915.777 707.666 913.604C788.931 908.198 982.518 882.259 1035.3 816.309C1049.61 798.434 1054.64 780.338 1045.31 758.658V758.644ZM430.025 752.137C412.163 757.542 388.093 766.296 371.993 755.5C328.902 726.609 409.037 705.59 428.777 701.007C460.641 693.605 495.924 689.389 528.492 687.994C502.983 718.398 468.053 740.636 430.025 752.151V752.137Z" fill="url(#paint0_radial_546_2)"/>
</g>
<g opacity="0.5" filter="url(#filter1_f_546_2)">
<path d="M1045.31 758.644C1015.45 689.345 825.814 656.605 757.508 649.981C749.054 649.158 726.247 646.367 719.613 647.66C716.428 648.277 714.065 649.423 712.392 652.331C709.544 697.423 773.33 693.825 805.751 701.463C890.568 721.453 897.525 753.327 809.552 778.032C763.79 790.884 713.536 794.953 666.16 797.215C661.17 792.882 682.774 781.219 685.841 780.103C711.79 770.732 748.276 771.878 767.87 748.009C768.912 744.235 768.34 741.929 766.021 738.844C763.687 735.73 736.036 719.558 729.123 714.021C722.489 708.719 716.428 701.933 710.366 695.999C677.828 664.14 656.855 558.87 640.108 485.87C635.192 496.534 600.158 495.887 595.829 486.355C584.66 546.385 576.426 624.306 564.141 644.047C471.604 649.878 375.046 658.074 287.558 690.3C233.297 710.276 134.611 762.536 208.053 826.958C258.336 871.052 352.282 890.176 416.963 899.385C417.623 889.691 417.242 882.347 413.147 873.49C393.054 829.999 281.379 829.47 243.703 786.522C217.784 756.969 260.361 723.392 288.761 721.233C288.981 728.063 281.276 730.486 278.296 735.671C260.332 766.898 325.071 792.5 346.279 800.255C488.938 852.413 745.752 852.692 888.131 799.653C908.371 792.118 960.884 770.659 958.11 744L943.874 721.233C975.546 724.743 1017.86 758.556 985.497 790.208C939.06 835.624 777.542 853.602 712.421 858.964C668.625 862.577 588.549 849.519 585.79 913.295C589.004 914.881 592.541 915.66 596.107 915.998C628.074 919.038 674.804 915.777 707.666 913.604C788.931 908.198 982.518 882.259 1035.3 816.309C1049.61 798.434 1054.64 780.338 1045.31 758.658V758.644ZM430.025 752.137C412.163 757.542 388.093 766.296 371.993 755.5C328.902 726.609 409.037 705.59 428.777 701.007C460.641 693.605 495.924 689.389 528.492 687.994C502.983 718.398 468.053 740.636 430.025 752.151V752.137Z" fill="url(#paint1_radial_546_2)"/>
</g>
<g filter="url(#filter2_d_546_2)">
<path d="M683.435 406.407C683.435 411.181 682.95 415.837 681.996 420.332C681.806 421.301 681.585 422.256 681.336 423.211C679.076 432.038 675.084 440.161 669.741 447.196C669.741 447.211 669.727 447.211 669.727 447.211C669.213 447.887 668.699 448.548 668.156 449.194C669.492 444.479 670.211 439.485 670.211 434.33C670.211 429.483 669.58 424.797 668.391 420.332C662.212 397.125 641.063 380.013 615.936 380.013C590.81 380.013 569.66 397.125 563.481 420.332C562.293 424.797 561.662 429.483 561.662 434.33C561.662 439.485 562.381 444.479 563.716 449.194C563.173 448.533 562.645 447.872 562.131 447.196C556.789 440.146 552.797 432.038 550.537 423.225C550.302 422.271 550.067 421.316 549.876 420.361C548.922 415.867 548.438 411.196 548.438 406.407C548.438 397.051 550.331 388.15 553.78 380.057C554.94 377.296 556.29 374.637 557.787 372.096C559.9 368.497 562.351 365.119 565.067 361.991C565.419 361.594 565.786 361.197 566.138 360.801C571.877 354.529 578.775 349.344 586.524 345.584C583.956 342.441 581.578 339.121 579.42 335.655C570.277 321.011 565.008 303.693 565.008 285.157C565.008 257.323 576.896 232.265 595.888 214.801C601.01 210.071 606.675 205.9 612.751 202.389C618.828 205.9 624.493 210.071 629.615 214.801C648.607 232.265 660.495 257.323 660.495 285.157C660.495 302.885 655.681 319.468 647.271 333.686C645.26 337.109 643.03 340.399 640.623 343.513C649.825 347.126 658.044 352.722 664.766 359.743C665.382 360.404 665.999 361.065 666.586 361.741C669.052 364.532 671.282 367.528 673.249 370.701C674.937 373.403 676.434 376.209 677.726 379.146C681.395 387.489 683.435 396.699 683.435 406.407Z" fill="url(#paint2_linear_546_2)"/>
</g>
<g opacity="0.5" filter="url(#filter3_f_546_2)">
<path d="M683.435 406.407C683.435 411.181 682.95 415.837 681.996 420.332C681.806 421.301 681.585 422.256 681.336 423.211C679.076 432.038 675.084 440.161 669.741 447.196C669.741 447.211 669.727 447.211 669.727 447.211C669.213 447.887 668.699 448.548 668.156 449.194C669.492 444.479 670.211 439.485 670.211 434.33C670.211 429.483 669.58 424.797 668.391 420.332C662.212 397.125 641.063 380.013 615.936 380.013C590.81 380.013 569.66 397.125 563.481 420.332C562.293 424.797 561.662 429.483 561.662 434.33C561.662 439.485 562.381 444.479 563.716 449.194C563.173 448.533 562.645 447.872 562.131 447.196C556.789 440.146 552.797 432.038 550.537 423.225C550.302 422.271 550.067 421.316 549.876 420.361C548.922 415.867 548.438 411.196 548.438 406.407C548.438 397.051 550.331 388.15 553.78 380.057C554.94 377.296 556.29 374.637 557.787 372.096C559.9 368.497 562.351 365.119 565.067 361.991C565.419 361.594 565.786 361.197 566.138 360.801C571.877 354.529 578.775 349.344 586.524 345.584C583.956 342.441 581.578 339.121 579.42 335.655C570.277 321.011 565.008 303.693 565.008 285.157C565.008 257.323 576.896 232.265 595.888 214.801C601.01 210.071 606.675 205.9 612.751 202.389C618.828 205.9 624.493 210.071 629.615 214.801C648.607 232.265 660.495 257.323 660.495 285.157C660.495 302.885 655.681 319.468 647.271 333.686C645.26 337.109 643.03 340.399 640.623 343.513C649.825 347.126 658.044 352.722 664.766 359.743C665.382 360.404 665.999 361.065 666.586 361.741C669.052 364.532 671.282 367.528 673.249 370.701C674.937 373.403 676.434 376.209 677.726 379.146C681.395 387.489 683.435 396.699 683.435 406.407Z" fill="url(#paint3_linear_546_2)"/>
</g>
<defs>
<filter id="filter0_d_546_2" x="117.62" y="421.634" width="996.661" height="559.836" filterUnits="userSpaceOnUse" color-interpolation-filters="sRGB">
<feFlood flood-opacity="0" result="BackgroundImageFix"/>
<feColorMatrix in="SourceAlpha" type="matrix" values="0 0 0 0 0 0 0 0 0 0 0 0 0 0 0 0 0 0 127 0" result="hardAlpha"/>
<feOffset/>
<feGaussianBlur stdDeviation="32.1183"/>
<feComposite in2="hardAlpha" operator="out"/>
<feColorMatrix type="matrix" values="0 0 0 0 0 0 0 0 0 0 0 0 0 0 0 0 0 0 0.25 0"/>
<feBlend mode="normal" in2="BackgroundImageFix" result="effect1_dropShadow_546_2"/>
<feBlend mode="normal" in="SourceGraphic" in2="effect1_dropShadow_546_2" result="shape"/>
</filter>
<filter id="filter1_f_546_2" x="123.78" y="427.793" width="984.342" height="547.517" filterUnits="userSpaceOnUse" color-interpolation-filters="sRGB">
<feFlood flood-opacity="0" result="BackgroundImageFix"/>
<feBlend mode="normal" in="SourceGraphic" in2="BackgroundImageFix" result="shape"/>
<feGaussianBlur stdDeviation="29.0384" result="effect1_foregroundBlur_546_2"/>
</filter>
<filter id="filter2_d_546_2" x="484.201" y="138.153" width="263.47" height="375.278" filterUnits="userSpaceOnUse" color-interpolation-filters="sRGB">
<feFlood flood-opacity="0" result="BackgroundImageFix"/>
<feColorMatrix in="SourceAlpha" type="matrix" values="0 0 0 0 0 0 0 0 0 0 0 0 0 0 0 0 0 0 127 0" result="hardAlpha"/>
<feOffset/>
<feGaussianBlur stdDeviation="32.1183"/>
<feComposite in2="hardAlpha" operator="out"/>
<feColorMatrix type="matrix" values="0 0 0 0 0 0 0 0 0 0 0 0 0 0 0 0 0 0 0.25 0"/>
<feBlend mode="normal" in2="BackgroundImageFix" result="effect1_dropShadow_546_2"/>
<feBlend mode="normal" in="SourceGraphic" in2="effect1_dropShadow_546_2" result="shape"/>
</filter>
<filter id="filter3_f_546_2" x="490.361" y="144.312" width="251.151" height="362.958" filterUnits="userSpaceOnUse" color-interpolation-filters="sRGB">
<feFlood flood-opacity="0" result="BackgroundImageFix"/>
<feBlend mode="normal" in="SourceGraphic" in2="BackgroundImageFix" result="shape"/>
<feGaussianBlur stdDeviation="29.0384" result="effect1_foregroundBlur_546_2"/>
</filter>
<radialGradient id="paint0_radial_546_2" cx="0" cy="0" r="1" gradientUnits="userSpaceOnUse" gradientTransform="translate(615.935 486.055) rotate(89.9979) scale(431.178 867.816)">
<stop stop-color="white"/>
<stop offset="0.125" stop-color="#FFEF5F"/>
<stop offset="0.778003" stop-color="#B13BFF"/>
</radialGradient>
<radialGradient id="paint1_radial_546_2" cx="0" cy="0" r="1" gradientUnits="userSpaceOnUse" gradientTransform="translate(615.935 486.055) rotate(89.9979) scale(431.178 867.816)">
<stop stop-color="white"/>
<stop offset="0.125" stop-color="#FFEF5F"/>
<stop offset="0.778003" stop-color="#B13BFF"/>
</radialGradient>
<linearGradient id="paint2_linear_546_2" x1="612.664" y1="110.397" x2="621.52" y2="449.048" gradientUnits="userSpaceOnUse">
<stop stop-color="white"/>
<stop offset="1" stop-color="#FFCC00"/>
</linearGradient>
<linearGradient id="paint3_linear_546_2" x1="612.664" y1="110.397" x2="621.52" y2="449.048" gradientUnits="userSpaceOnUse">
<stop stop-color="white"/>
<stop offset="1" stop-color="#FFCC00"/>
</linearGradient>
</defs>
</svg>
